<?xml version="1.0" encoding="utf-8"?>
<!-- Generator: Adobe Illustrator 14.0.0, SVG Export Plug-In . SVG Version: 6.00 Build 43363)  -->
<!DOCTYPE svg PUBLIC "-//W3C//DTD SVG 1.1//EN" "http://www.w3.org/Graphics/SVG/1.1/DTD/svg11.dtd">
<svg version="1.1" id="Layer_1" xmlns="http://www.w3.org/2000/svg" xmlns:xlink="http://www.w3.org/1999/xlink" x="0px" y="0px"
	 width="162px" height="162px" viewBox="0 0 162 162" enable-background="new 0 0 162 162" xml:space="preserve">
<path fill="#231F20" d="M98.461,17.665L97.102,17.3l-0.886,3.312l1.415,0.377c1.456,0.389,2.44-0.057,2.721-1.105
	C100.627,18.854,99.934,18.057,98.461,17.665"/>
<path fill="#231F20" d="M45.929,136.902c2.056,1.311,4.549,0.688,5.962-1.525c1.401-2.198,0.922-4.739-1.132-6.05
	c-2.037-1.299-4.533-0.681-5.945,1.536C43.411,133.061,43.891,135.602,45.929,136.902"/>
<path fill="#231F20" d="M89.892,146.576l1.079-0.116l-0.924-8.631l-1.229,0.131c-3.22,0.345-4.7,2.265-4.414,4.934
	C84.696,145.62,86.789,146.907,89.892,146.576"/>
<path fill="#231F20" d="M97.354,22.691l-1.582-0.422l-0.935,3.495l1.638,0.437c1.436,0.383,2.551,0.051,2.859-1.108
	C99.635,23.971,98.919,23.11,97.354,22.691"/>
<polygon fill="#231F20" points="76.789,20.468 80.286,20.305 78.31,15.463 "/>
<polygon fill="#231F20" points="127.688,121.062 125.325,123.65 130.15,125.682 "/>
<path fill="#231F20" d="M135.077,111.759c2.461,1.205,4.666,0.125,6.04-2.679l0.478-0.974l-7.792-3.822l-0.547,1.111
	C131.831,108.302,132.666,110.577,135.077,111.759"/>
<path fill="#231F20" d="M160.597,81.283l1.495-6.203c0.706-2.937,0.299-6.03-1.144-8.685l-3.05-5.604l-0.16-6.374
	c-0.077-3.021-1.271-5.906-3.354-8.096l-4.396-4.623l-1.808-6.119c-0.855-2.898-2.757-5.374-5.332-6.949l-5.441-3.329l-3.33-5.442
	c-1.575-2.575-4.051-4.474-6.946-5.33l-6.121-1.807l-4.622-4.393c-2.187-2.08-5.071-3.275-8.087-3.354l-6.381-0.163l-5.607-3.049
	c-2.654-1.446-5.747-1.853-8.686-1.143L81.43,2.117l-6.201-1.494c-2.936-0.708-6.031-0.301-8.683,1.143l-5.608,3.049l-6.379,0.163
	C51.54,5.056,48.66,6.249,46.47,8.328l-4.625,4.396l-6.119,1.807c-2.894,0.855-5.37,2.755-6.945,5.327l-3.333,5.445l-5.442,3.329
	c-2.575,1.578-4.477,4.053-5.332,6.951l-1.805,6.116l-4.393,4.623c-2.083,2.189-3.278,5.074-3.354,8.096l-0.163,6.374l-3.046,5.604
	c-1.443,2.652-1.851,5.745-1.144,8.68l1.492,6.208l-1.492,6.204c-0.707,2.935-0.299,6.028,1.144,8.68l3.046,5.606l0.163,6.377
	c0.076,3.021,1.271,5.905,3.354,8.095l4.393,4.622l1.805,6.115c0.855,2.896,2.755,5.371,5.329,6.949l5.445,3.329l3.333,5.446
	c1.575,2.574,4.051,4.473,6.95,5.328l6.114,1.806l4.623,4.396c2.189,2.082,5.076,3.278,8.098,3.354l6.372,0.16l5.606,3.05
	c1.801,0.98,3.807,1.483,5.828,1.483c0.957-0.002,1.916-0.113,2.857-0.34l6.201-1.495l6.198,1.495
	c2.938,0.707,6.034,0.301,8.688-1.144l5.603-3.05l6.375-0.16c3.021-0.075,5.908-1.271,8.098-3.354l4.619-4.396l6.119-1.806
	c2.895-0.855,5.373-2.754,6.948-5.331l3.33-5.443l5.443-3.329c2.576-1.576,4.475-4.052,5.33-6.947l1.808-6.117l4.396-4.622
	c2.082-2.189,3.276-5.073,3.354-8.095l0.16-6.377l3.05-5.606c1.442-2.653,1.85-5.747,1.144-8.685L160.597,81.283z M134.324,134.176
	c-29.212,29.214-76.578,29.214-105.793,0c-29.21-29.212-29.21-76.575,0.003-105.788c29.213-29.214,76.579-29.213,105.789,0
	C163.539,57.601,163.539,104.964,134.324,134.176"/>
<path fill="#231F20" d="M81.432,36.985c-24.466,0-44.3,19.833-44.3,44.297c0,24.465,19.834,44.298,44.3,44.298
	c24.466,0,44.297-19.833,44.297-44.298C125.729,56.818,105.898,36.985,81.432,36.985 M96.965,83.112
	c-0.35-0.003-0.562,0.063-0.565,0.209c0,0.065,0.142,0.209,0.421,0.425c0.701,0.57,4.613,3.849,4.559,9.626
	c-0.082,8.603-6.012,17.284-26.099,17.095c-13.532-0.13-24.742-7.357-24.632-18.845c0.104-10.852,13.331-15.731,16.439-16.267
	c0.14-0.069,0.213-0.137,0.214-0.211c0.001-0.138,0.001-0.206-0.209-0.284c-2.252-0.793-8.989-3.75-8.924-10.513
	c0.065-6.836,8.786-12.177,17.104-12.098c7.751,0.074,13.57,3.439,13.514,9.219c-0.05,5.14-4.307,7.92-8.395,7.881
	c-4.018-0.038-7.731-2.04-7.689-6.482c0.024-2.541,1.952-5.06,5.402-5.027c2.328,0.022,3.583,1.304,3.579,1.87
	c-0.002,0.142-0.143,0.279-0.427,0.345c-1.908,0.621-2.697,1.808-2.711,3.357c-0.018,1.837,1.446,3.683,3.77,3.706
	c3.247,0.03,5.455-2.911,5.483-5.941c0.029-3.102-2.892-7.149-8.528-7.203c-5.004-0.047-8.699,2.877-8.766,10.069
	c-0.069,7.184,1.59,10.941,7.299,10.996c0.207,0.067,0.273,0.208,0.272,0.351c-0.001,0.144-0.071,0.212-0.277,0.276
	c-5.009-0.047-11.368,1.868-11.488,14.486c-0.101,10.639,4.402,18.649,14.764,18.749c9.023,0.085,19.215-4.684,19.316-15.469
	c0.068-7.046-6.168-11.048-13.146-11.115c-6.695-0.064-11.521,3.621-11.576,9.405c-0.053,5.639,4.146,8.498,6.403,8.521
	c0.284,0.002,0.495-0.216,0.497-0.494c0.009-0.703-3.637-2.709-3.595-7.08c0.037-3.95,3.376-6.949,7.256-6.912
	c3.73,0.035,7.301,2.819,7.256,7.542c-0.044,4.721-4.028,8.42-9.243,8.371c-7.26-0.07-11.219-6.166-11.153-12.937
	c0.062-6.691,4.219-13.985,13.404-16.502c7.069-1.908,15.157,0.073,19.27-2.429c3.044-1.875,4.124-3.977,4.151-6.795
	c0.049-5.144-4.014-7.793-8.524-7.836c-0.985-0.01-1.552,0.412-1.556,0.833c-0.011,1.056,5.34,1.321,5.288,6.678
	c-0.034,3.595-2.53,6.456-6.333,6.421c-4.017-0.038-7.088-2.745-7.049-7.044c0.043-4.65,3.947-7.854,9.446-7.801
	c7.537,0.072,11.081,5.956,11.02,12.367C112.134,74.518,106.834,83.208,96.965,83.112"/>
<path fill="#231F20" d="M131.373,82.787v1.136h2.936l0.001-1.11h-0.912l0.324-0.95l2.361,0.001l0.337,0.95l-0.911-0.001
	l-0.001,1.113h2.961V82.79h-0.688l-1.521-4.286l0.861,0.001l0.001-1.138l-4.397-0.002l-0.001,1.138h0.875l-1.527,4.284H131.373z
	 M134.899,78.416l0.822,2.375l-1.636-0.001L134.899,78.416z"/>
<polygon fill="#231F20" points="139.384,82.792 139.384,83.928 142.545,83.931 142.545,82.792 141.67,82.792 141.671,79.707 
	144.905,83.968 145.844,83.968 145.846,78.509 146.808,78.509 146.808,77.373 143.609,77.37 143.609,78.508 144.546,78.508 
	144.545,81.319 141.5,77.369 139.388,77.368 139.387,78.505 140.35,78.505 140.347,82.792 "/>
<path fill="#231F20" d="M150.535,77.374l-2.861-0.001v1.137h0.96l-0.002,4.286h-0.961l-0.001,1.137h2.736
	c2.573,0.002,3.898-1.334,3.899-3.333C154.307,78.614,152.896,77.375,150.535,77.374 M150.606,82.796h-0.612l0.002-4.285h0.538
	c1.512,0.001,2.397,0.751,2.396,2.1C152.929,81.935,152.167,82.799,150.606,82.796"/>
<path fill="#231F20" d="M129.938,90.22h23.893c0.119-0.97,0.223-1.94,0.302-2.915h-23.754
	C130.26,88.28,130.116,89.252,129.938,90.22"/>
<path fill="#231F20" d="M130.253,74.216h23.802c-0.097-0.994-0.22-1.985-0.356-2.975h-23.978
	C129.926,72.229,130.11,73.22,130.253,74.216"/>
<path fill="#231F20" d="M29.809,29.663c-28.464,28.463-28.467,74.775,0,103.238c28.461,28.462,74.777,28.462,103.242,0
	c11.654-11.654,18.527-26.302,20.637-41.492h-23.985c-1.895,9.07-6.35,17.714-13.393,24.755c-19.264,19.265-50.498,19.262-69.762,0
	c-19.266-19.265-19.268-50.498,0-69.764c19.264-19.265,50.498-19.261,69.762,0c6.756,6.756,11.134,14.985,13.151,23.651h24.059
	c-2.284-14.793-9.099-29.016-20.469-40.388C104.586,1.201,58.27,1.201,29.809,29.663 M131.663,104.276l1.987-4.052l1.725,0.847
	l-0.627,1.281l7.795,3.821l0.627-1.281l1.728,0.847l-2.088,4.256c-1.993,4.069-5.295,5.44-8.696,3.771
	C130.679,112.083,129.503,108.687,131.663,104.276 M121.18,119.66l1.408,1.283l-0.976,1.069l1.992,0.867l3.16-3.46l-1.044-1.908
	l-1.027,1.128l-1.406-1.287l3.247-3.559l1.423,1.298l-0.733,0.802l4.323,8.173l0.925-1.012l1.406,1.284l-4.777,5.233l-1.407-1.285
	l0.926-1.012l-8.535-3.562l-0.731,0.802l-1.423-1.297L121.18,119.66z M111.856,127.205l9.654,6.551l0.959-0.619l1.044,1.616
	l-4.158,2.687l-1.044-1.615l1.104-0.713l-6.004-4.307l1.46,7.242l1.168-0.755l1.045,1.615l-4.159,2.688l-1.044-1.616l0.959-0.62
	l-2.007-11.492L111.856,127.205z M103.608,131.927l0.688,1.794l-1.42,0.546l3.107,8.106l1.422-0.545l0.689,1.795l-4.854,1.862
	l-0.689-1.796l1.422-0.546l-3.109-8.106l-1.422,0.545l-0.687-1.796L103.608,131.927z M88.916,136.016l4.485-0.479l0.205,1.913
	l-1.42,0.15l0.924,8.632l1.419-0.151l0.206,1.911l-4.715,0.505c-4.505,0.481-7.424-1.58-7.828-5.347
	C81.786,139.346,84.032,136.539,88.916,136.016 M24.382,104.746c-0.255,0.108-0.562-0.043-0.682-0.335
	c-0.522-1.272-0.767-1.915-1.213-3.209c-1.113,1.889-1.632,2.876-2.588,4.925c-0.126,0.271-0.437,0.345-0.695,0.156
	c-0.255-0.187-0.364-0.565-0.233-0.839c1.125-2.346,1.741-3.466,3.065-5.594c-0.296-0.93-0.433-1.397-0.691-2.334
	c-1.233,1.807-1.818,2.754-2.907,4.731c-0.145,0.263-0.46,0.316-0.706,0.112s-0.322-0.588-0.173-0.85
	c1.276-2.257,1.967-3.332,3.427-5.365c-0.232-0.932-0.339-1.401-0.533-2.341c-1.347,1.726-1.992,2.63-3.205,4.528
	c-0.162,0.252-0.479,0.288-0.71,0.066c-0.231-0.217-0.288-0.606-0.124-0.856c1.421-2.167,2.18-3.191,3.767-5.125
	c-1.246-6.8-1.379-10.318-0.632-17.22c-0.04-0.06-0.093-0.103-0.168-0.111c-0.404-0.044-0.342,0.488-1.433,1.501
	c-1.091,1.015-2.208,1.608-2.668,1.747c-0.97,0.293-0.99-0.595-0.529-0.879c0.99-0.613,2.088-1.622,3.231-3.259
	c1.836-2.627,2.538-4.866,2.7-5.588c0.057-0.249,0.333-0.476,0.525-0.432c0.192,0.045,0.457,0.265,0.375,0.633
	c-0.207,0.916-0.49,3.314,0.72,5.914c0.793,1.707,1.699,2.765,2.608,3.394c0.424,0.292,0.32,1.027-0.619,0.684
	c-0.444-0.163-1.51-0.78-2.427-1.891c-0.915-1.109-0.722-1.629-1.126-1.674c-0.074-0.007-0.139,0.019-0.189,0.069
	c-0.736,6.802-0.602,10.266,0.63,16.968c2.163,1.203,3.26,1.739,5.467,2.673c0.154,0.064,0.257,0.195,0.296,0.349
	c0.027,0.103,0.023,0.213-0.019,0.318c-0.102,0.263-0.391,0.394-0.65,0.286c-1.947-0.805-2.917-1.255-4.829-2.264
	c0.191,0.925,0.298,1.384,0.527,2.301c2.235,1.066,3.363,1.533,5.628,2.329c0.158,0.055,0.271,0.181,0.319,0.33
	c0.035,0.1,0.041,0.212,0.006,0.32c-0.085,0.267-0.367,0.415-0.633,0.325c-1.997-0.681-2.992-1.071-4.967-1.96
	c0.255,0.925,0.39,1.386,0.683,2.3c2.301,0.926,3.462,1.321,5.777,1.975c0.162,0.047,0.282,0.163,0.34,0.307
	c0.041,0.101,0.052,0.213,0.026,0.324c-0.066,0.273-0.338,0.439-0.609,0.365c-2.04-0.557-3.059-0.884-5.09-1.646
	c0.437,1.26,0.674,1.885,1.184,3.124C24.75,104.317,24.637,104.638,24.382,104.746 M76.689,136.14
	c0.852,0.074,1.495,0.836,1.42,1.69c-0.076,0.871-0.839,1.513-1.693,1.438c-0.854-0.072-1.495-0.836-1.419-1.709
	C75.071,136.707,75.835,136.065,76.689,136.14 M57.734,142.008c0.255-0.876,0.999-1.313,1.749-1.095
	c0.819,0.241,1.238,0.919,1.006,1.704c-0.069,0.236-0.194,0.458-0.308,0.583c0.266,0.375,0.879,0.853,1.975,1.172
	c2.337,0.686,4.651-0.579,5.383-3.081c0.706-2.408-0.412-4.82-2.95-5.562c-1.406-0.412-2.738-0.128-3.916,0.577l-0.954-1.825
	c1.55-0.955,3.513-1.232,5.431-0.669c3.707,1.085,5.627,4.345,4.53,8.088c-1.06,3.615-4.636,5.403-8.143,4.375
	C58.746,145.456,57.311,143.449,57.734,142.008 M51.882,127.674c3.194,2.036,3.852,5.819,1.886,8.899
	c-1.976,3.099-5.735,4.039-8.946,1.993c-3.194-2.036-3.851-5.819-1.887-8.901C44.913,126.568,48.673,125.626,51.882,127.674
	 M32.795,112.18l1.475-1.231l3.294,3.942l-1.474,1.233l-0.965-1.152l-4.793,4.326l7.115-1.282l0.183,0.221l-2.526,6.771l5.11-3.946
	l-0.962-1.155l1.474-1.231l3.27,3.915l-1.475,1.232l-0.952-1.14l-6.917,5.258l1.002,1.197l-1.475,1.233l-2.199-2.63l2.882-7.415
	l-7.811,1.514l-2.184-2.614l1.475-1.23l1,1.195l6.406-5.871L32.795,112.18z M29.501,61.908l-1.736-0.824l0.611-1.29l-7.841-3.716
	l-0.612,1.289l-1.736-0.822l4.001-8.443l3.232,1.531l-0.881,1.858l-1.514-0.717l-1.587,3.353l3.024,1.435l1.624-3.422l1.651,0.782
	l-1.622,3.422l3.199,1.515l1.596-3.37l-1.515-0.716l0.882-1.859l3.231,1.533L29.501,61.908z M37.19,47.914l-1.433-1.28l0.952-1.065
	l-6.475-5.782l-0.953,1.065l-1.434-1.281l3.485-3.903l1.435,1.279l-1.103,1.237l6.489,5.794l2.295-2.571l-1.32-1.178l1.381-1.548
	l2.741,2.447L37.19,47.914z M47.821,37.381l-1.085-1.585l1.256-0.86l-4.903-7.16l-1.256,0.86l-1.085-1.584l4.285-2.937l1.086,1.586
	l-1.255,0.86l4.904,7.16l1.254-0.86l1.087,1.586L47.821,37.381z M57.29,31.357l-0.429-1.141l3.301-11.382l-4.564,1.709l0.734,1.962
	l-1.712,0.641l-1.371-3.655l9.115-3.414l0.427,1.141l-3.301,11.384l5.046-1.89l-0.735-1.962l1.694-0.635l1.368,3.656L57.29,31.357z
	 M80.399,26.053l-0.087-1.9l1.443-0.067l-0.796-2.021l-4.677,0.218l-0.607,2.084l1.519-0.07l0.089,1.9l-4.81,0.224l-0.09-1.92
	l1.084-0.05l2.716-8.832l-1.37,0.064l-0.088-1.902l7.071-0.326l0.088,1.9l-1.368,0.063l3.518,8.542l1.086-0.05l0.087,1.919
	L80.399,26.053z M102.552,20.217c-0.374,1.396-1.48,2.068-2.784,2.152c1.389,0.845,2.056,1.969,1.653,3.478
	c-0.536,2.006-2.524,2.954-5.469,2.166l-5.041-1.347l0.496-1.858l1.381,0.369l2.241-8.39l-1.379-0.369l0.494-1.857l4.842,1.293
	C101.948,16.645,103.038,18.394,102.552,20.217 M116.516,27.494l0.859-1.438l-3.186-1.904l-1.719,2.875l3.251,1.943l-0.938,1.568
	l-3.25-1.942l-1.815,3.037l3.2,1.916l0.86-1.438l1.764,1.054l-1.836,3.072l-8.036-4.805l0.984-1.649l1.228,0.733l4.451-7.451
	l-1.226-0.732l0.985-1.648l8.021,4.794l-1.836,3.071L116.516,27.494z M138.117,43.65l2.426,4.532l-1.695,0.907l-0.736-1.376
	l-2.92,1.563l2.731,5.102l2.918-1.564l-0.736-1.376l1.697-0.907l2.424,4.53l-1.694,0.908l-0.674-1.259l-7.652,4.096l0.674,1.259
	l-1.695,0.908l-2.425-4.531l1.694-0.908l0.736,1.376l3.071-1.643l-2.731-5.102l-3.069,1.642l0.735,1.377l-1.692,0.906l-2.427-4.53
	l1.695-0.908l0.673,1.261l7.652-4.097l-0.673-1.258L138.117,43.65z M130.815,40.377l-1.426-1.454l1.413-1.386l-1.626-1.656
	l-6.238,6.116l1.094,1.115l-1.372,1.348l-3.69-3.764l1.37-1.347l1.093,1.113l6.238-6.116l-1.628-1.659l-1.412,1.387l-1.427-1.454
	l2.746-2.691l7.609,7.757L130.815,40.377z"/>
</svg>
