<?xml version="1.0" encoding="utf-8"?>
<!-- Generator: Adobe Illustrator 14.0.0, SVG Export Plug-In . SVG Version: 6.00 Build 43363)  -->
<!DOCTYPE svg PUBLIC "-//W3C//DTD SVG 1.1//EN" "http://www.w3.org/Graphics/SVG/1.1/DTD/svg11.dtd">
<svg version="1.1" id="Layer_1" xmlns="http://www.w3.org/2000/svg" xmlns:xlink="http://www.w3.org/1999/xlink" x="0px" y="0px"
	 width="313.977px" height="38.645px" viewBox="0 0 313.977 38.645" enable-background="new 0 0 313.977 38.645"
	 xml:space="preserve">
<g>
	<polygon fill="#231F20" points="0.076,25.112 2.197,25.112 2.197,12.199 0.076,12.199 0.076,9.339 13.981,9.339 13.981,14.666 
		10.917,14.666 10.917,12.17 5.398,12.17 5.398,17.159 11.032,17.159 11.032,19.872 5.398,19.872 5.398,25.137 10.948,25.137 
		10.948,22.65 14.008,22.65 14.008,27.972 0.076,27.972 	"/>
	<polygon fill="#231F20" points="18.113,25.112 20.235,25.112 20.235,12.199 18.113,12.199 18.113,9.339 25.901,9.339 
		25.901,12.199 23.435,12.199 23.435,25.137 28.561,25.137 28.561,22.507 31.646,22.507 31.646,27.972 18.113,27.972 	"/>
	<polygon fill="#231F20" points="35.328,25.112 37.595,25.112 37.595,12.199 35.328,12.199 35.328,9.339 43.057,9.339 
		43.057,12.199 40.79,12.199 40.79,25.112 43.057,25.112 43.057,27.972 35.328,27.972 	"/>
	<polygon fill="#231F20" points="47.048,26.159 57.581,12.033 50.332,12.033 50.332,15.145 47.609,15.145 47.609,9.342 
		62.084,9.342 62.084,11.154 51.547,25.278 59.56,25.278 59.56,22.162 62.251,22.162 62.251,27.972 47.048,27.972 	"/>
	<path fill="#231F20" d="M65.566,25.112h1.614l4.644-12.942h-2.037V9.339H80.32v2.831h-2.037l4.64,12.942h1.613v2.859h-7.16v-2.835
		h2.153l-1.047-3.056h-6.964l-1.048,3.056h2.262v2.835h-7.164V25.112z M77.602,19.421l-2.603-7.337l-2.609,7.337H77.602z"/>
	<path fill="#231F20" d="M87.651,25.112h2.116V12.202h-2.116V9.336h7.447c4.556,0,6.792,2.098,6.792,4.902
		c0,2.149-1.33,3.541-3.168,4.162c2.319,0.683,3.708,2.039,3.708,4.359c0,3.085-2.494,5.208-7.024,5.208h-7.756V25.112z
		 M95.125,17.236c2.237,0,3.483-1.013,3.483-2.631c0-1.584-1.298-2.465-3.566-2.465h-2.095v5.096H95.125z M95.466,25.168
		c2.209,0,3.682-0.905,3.682-2.691c0-1.728-1.361-2.687-3.766-2.687h-2.436v5.378H95.466z"/>
	<polygon fill="#231F20" points="106.229,25.112 108.354,25.112 108.354,12.199 106.229,12.199 106.229,9.339 120.126,9.339 
		120.126,14.666 117.074,14.666 117.074,12.17 111.548,12.17 111.548,17.159 117.183,17.159 117.183,19.872 111.548,19.872 
		111.548,25.137 117.099,25.137 117.099,22.65 120.158,22.65 120.158,27.972 106.229,27.972 	"/>
	<polygon fill="#231F20" points="127.459,25.112 129.777,25.112 129.777,12.117 126.326,12.117 126.326,15.061 123.292,15.061 
		123.292,9.339 139.461,9.339 139.461,15.061 136.434,15.061 136.434,12.117 132.979,12.117 132.979,25.112 135.303,25.112 
		135.303,27.972 127.459,27.972 	"/>
	<polygon fill="#231F20" points="142.859,25.112 144.98,25.112 144.98,12.199 142.859,12.199 142.859,9.339 150.508,9.339 
		150.508,12.199 148.184,12.199 148.184,17.127 156.793,17.127 156.793,12.199 154.473,12.199 154.473,9.339 162.113,9.339 
		162.113,12.199 159.99,12.199 159.99,25.112 162.113,25.112 162.113,27.972 154.473,27.972 154.473,25.112 156.793,25.112 
		156.793,19.932 148.184,19.932 148.184,25.112 150.508,25.112 150.508,27.972 142.859,27.972 	"/>
	<path fill="#231F20" d="M222.531,25.112h2.129V12.199h-2.129V9.339h7.051c6.74,0,10.725,3.511,10.725,9.149
		c0,5.691-3.76,9.483-11.064,9.483h-6.711V25.112z M229.695,25.112c4.809,0,7.309-2.606,7.309-6.599
		c0-4.074-2.891-6.315-7.529-6.315h-1.623v12.914H229.695z"/>
	<path fill="#231F20" d="M243.115,25.112h1.613l4.645-12.942h-2.037V9.339h10.533v2.831h-2.037l4.639,12.942h1.611v2.859h-7.16
		v-2.835h2.154l-1.047-3.056h-6.965l-1.047,3.056h2.264v2.835h-7.166V25.112z M255.15,19.421l-2.604-7.337l-2.609,7.337H255.15z"/>
	<polygon fill="#231F20" points="264.525,12.199 262.82,12.199 262.82,9.339 270.186,9.339 270.186,12.199 268.232,12.199 
		272.252,22.42 276.271,12.199 274.207,12.199 274.207,9.339 281.566,9.339 281.566,12.199 279.869,12.199 273.102,28.171 
		271.291,28.171 	"/>
	<polygon fill="#231F20" points="284.682,25.112 286.949,25.112 286.949,12.199 284.682,12.199 284.682,9.339 292.412,9.339 
		292.412,12.199 290.143,12.199 290.143,25.112 292.412,25.112 292.412,27.972 284.682,27.972 	"/>
	<path fill="#231F20" d="M296.203,25.112h2.123V12.199h-2.123V9.339h7.051c6.738,0,10.723,3.511,10.723,9.149
		c0,5.691-3.758,9.483-11.062,9.483h-6.711V25.112z M303.365,25.112c4.811,0,7.307-2.606,7.307-6.599
		c0-4.074-2.889-6.315-7.529-6.315h-1.617v12.914H303.365z"/>
	<path fill="#231F20" d="M204.234,20.383c-0.23,0-0.377,0.052-0.377,0.139c0,0.049,0.1,0.144,0.283,0.278
		c0.465,0.371,3.084,2.53,3.084,6.357c0,5.689-3.875,11.487-17.184,11.487c-8.965,0-16.438-4.72-16.438-12.337
		c0-7.181,8.73-10.5,10.789-10.875c0.088-0.049,0.141-0.092,0.141-0.135c0-0.1,0-0.139-0.141-0.191
		c-1.492-0.512-5.98-2.431-5.98-6.903c0-4.532,5.744-8.13,11.252-8.13c5.141,0,9.014,2.194,9.014,6.022
		c0,3.408-2.803,5.272-5.504,5.272c-2.672,0-5.143-1.301-5.143-4.248c0-1.678,1.262-3.363,3.545-3.363
		c1.547,0,2.383,0.844,2.383,1.218c0,0.097-0.088,0.188-0.275,0.231c-1.264,0.419-1.777,1.213-1.777,2.248
		c0,1.211,0.979,2.424,2.525,2.424c2.146,0,3.592-1.958,3.592-3.965c0-2.064-1.959-4.724-5.699-4.724
		c-3.309,0-5.744,1.964-5.744,6.73c0,4.757,1.127,7.24,4.908,7.24c0.135,0.04,0.182,0.139,0.182,0.225
		c0,0.101-0.047,0.152-0.182,0.188c-3.314,0-7.521,1.31-7.521,9.669c0,7.052,3.031,12.33,9.904,12.33
		c5.975,0,12.697-3.227,12.697-10.373c0-4.671-4.156-7.277-8.781-7.277c-4.434,0-7.609,2.468-7.609,6.308
		c0,3.729,2.803,5.602,4.301,5.602c0.188,0,0.326-0.154,0.326-0.329c0-0.474-2.432-1.775-2.432-4.666
		c0-2.629,2.195-4.629,4.764-4.629c2.479,0,4.857,1.825,4.857,4.952c0,3.131-2.613,5.6-6.07,5.6c-4.814,0-7.475-4.009-7.475-8.497
		c0-4.437,2.713-9.293,8.779-11.022c4.67-1.303,10.043-0.047,12.752-1.733c2.006-1.26,2.707-2.657,2.707-4.52
		c0-3.414-2.707-5.143-5.697-5.143c-0.65,0-1.027,0.287-1.027,0.563c0,0.691,3.549,0.838,3.549,4.392
		c0,2.382-1.637,4.297-4.156,4.297c-2.66,0-4.713-1.775-4.713-4.629c0-3.077,2.562-5.217,6.211-5.217c4.99,0,7.377,3.87,7.377,8.113
		C214.23,14.594,210.775,20.383,204.234,20.383"/>
</g>
</svg>
