<?xml version="1.0" encoding="utf-8"?>
<!-- Generator: Adobe Illustrator 14.0.0, SVG Export Plug-In . SVG Version: 6.00 Build 43363)  -->
<!DOCTYPE svg PUBLIC "-//W3C//DTD SVG 1.1//EN" "http://www.w3.org/Graphics/SVG/1.1/DTD/svg11.dtd">
<svg version="1.1" id="Layer_1" xmlns="http://www.w3.org/2000/svg" xmlns:xlink="http://www.w3.org/1999/xlink" x="0px" y="0px"
	 width="79.646px" height="38.18px" viewBox="0 0 79.646 38.18" enable-background="new 0 0 79.646 38.18" xml:space="preserve">
<g>
	<polygon fill="#231F20" points="0,24.783 2.1,24.783 2.1,12.003 0,12.003 0,9.173 13.763,9.173 13.763,14.445 10.73,14.445 
		10.73,11.975 5.267,11.975 5.267,16.912 10.844,16.912 10.844,19.598 5.267,19.598 5.267,24.812 10.762,24.812 10.762,22.347 
		13.789,22.347 13.789,27.611 0,27.611 	"/>
	<path fill="#231F20" d="M62.053,24.783h2.103v-12.78h-2.103v-2.83h6.977c6.671,0,10.616,3.475,10.616,9.056
		c0,5.633-3.722,9.382-10.954,9.382h-6.639V24.783z M69.143,24.783c4.76,0,7.23-2.58,7.23-6.527c0-4.034-2.859-6.252-7.453-6.252
		h-1.602v12.78H69.143z"/>
	<path fill="#231F20" d="M48.301,20.101c-0.229,0-0.373,0.052-0.373,0.142c0,0.046,0.098,0.141,0.279,0.274
		c0.462,0.368,3.053,2.503,3.053,6.288c0,5.635-3.835,11.375-17.006,11.375c-8.875,0-16.272-4.672-16.272-12.214
		c0-7.102,8.641-10.39,10.679-10.76c0.088-0.049,0.139-0.091,0.139-0.136c0-0.099,0-0.137-0.139-0.19
		c-1.478-0.506-5.921-2.405-5.921-6.832C22.739,3.561,28.426,0,33.879,0c5.085,0,8.921,2.172,8.921,5.961
		c0,3.372-2.772,5.218-5.449,5.218c-2.643,0-5.089-1.289-5.089-4.205c0-1.662,1.249-3.328,3.509-3.328
		c1.529,0,2.359,0.834,2.359,1.205c0,0.096-0.088,0.187-0.275,0.228c-1.249,0.415-1.756,1.2-1.756,2.224
		c0,1.2,0.969,2.401,2.498,2.401c2.125,0,3.556-1.939,3.556-3.925c0-2.042-1.939-4.674-5.639-4.674
		c-3.276,0-5.687,1.943-5.687,6.661c0,4.708,1.114,7.167,4.857,7.167c0.135,0.039,0.181,0.137,0.181,0.224
		c0,0.1-0.045,0.149-0.181,0.187c-3.281,0-7.444,1.295-7.444,9.564c0,6.984,3.001,12.21,9.803,12.21
		c5.915,0,12.571-3.197,12.571-10.27c0-4.624-4.116-7.204-8.693-7.204c-4.391,0-7.533,2.446-7.533,6.244
		c0,3.69,2.774,5.545,4.257,5.545c0.187,0,0.321-0.15,0.321-0.326c0-0.467-2.406-1.756-2.406-4.617c0-2.605,2.173-4.583,4.719-4.583
		c2.451,0,4.805,1.809,4.805,4.898c0,3.102-2.586,5.545-6.008,5.545c-4.764,0-7.396-3.969-7.396-8.406
		c0-4.398,2.685-9.202,8.688-10.912c4.623-1.292,9.941-0.046,12.623-1.715c1.984-1.247,2.68-2.631,2.68-4.474
		c0-3.379-2.68-5.09-5.641-5.09c-0.643,0-1.016,0.281-1.016,0.557c0,0.684,3.515,0.83,3.515,4.347c0,2.358-1.623,4.252-4.116,4.252
		c-2.633,0-4.665-1.757-4.665-4.582c0-3.045,2.54-5.163,6.147-5.163c4.94,0,7.305,3.831,7.305,8.03
		C58.197,14.374,54.775,20.101,48.301,20.101"/>
</g>
</svg>
