<?xml version="1.0" encoding="utf-8"?>
<!-- Generator: Adobe Illustrator 14.0.0, SVG Export Plug-In . SVG Version: 6.00 Build 43363)  -->
<!DOCTYPE svg PUBLIC "-//W3C//DTD SVG 1.1//EN" "http://www.w3.org/Graphics/SVG/1.1/DTD/svg11.dtd">
<svg version="1.1" id="Layer_1" xmlns="http://www.w3.org/2000/svg" xmlns:xlink="http://www.w3.org/1999/xlink" x="0px" y="0px"
	 width="11.356px" height="11.408px" viewBox="-0.597 -5.797 11.356 11.408" enable-background="new -0.597 -5.797 11.356 11.408"
	 xml:space="preserve">
<g>
	<path fill="#FFFFFF" d="M-0.596-1.553c0.037-0.066,0.121-0.091,0.188-0.055l1.086,0.595C0.645-1.047,0.625-1.092,0.625-1.143
		c0-0.102,0.083-0.184,0.184-0.184h8.482c0.103,0,0.186,0.083,0.186,0.184c0,0.102-0.083,0.184-0.186,0.184H0.808
		c-0.013,0-0.025-0.001-0.038-0.004l4.243,2.324l5.736-2.971c0.003-0.001,0.008-0.002,0.01-0.003
		c-0.481-0.396-4.207-3.29-4.99-3.896c-0.844-0.65-1.533,0-1.533,0l-4.833,3.941v0.019C-0.597-1.55-0.596-1.552-0.596-1.553z"/>
	<path fill="#FFFFFF" d="M10.814-1.33l-5.22,2.694l3.443,2.401C9.12,3.825,9.136,3.94,9.077,4.022
		C9.04,4.071,8.984,4.097,8.928,4.097c-0.038,0-0.077-0.011-0.109-0.037L5.256,1.572C5.25,1.566,5.245,1.561,5.238,1.555
		L5.013,1.676L4.749,1.532c-0.011,0.014-0.023,0.027-0.039,0.04L1.34,4.06C1.307,4.085,1.269,4.096,1.231,4.096
		c-0.057,0-0.112-0.025-0.148-0.074C1.022,3.94,1.039,3.825,1.121,3.765l3.281-2.423l-4.942-2.708
		C-0.566-1.38-0.585-1.4-0.597-1.424v6.231c0,0-0.027,0.804,0.83,0.804c0.645,0,3.209,0,4.444,0c0.408,0,0.672,0,0.672,0
		c2.461,0,2.798,0,4.636,0c0.858,0,0.831-0.804,0.831-0.804V-1.33H10.814z"/>
</g>
</svg>
