<?xml version="1.0" encoding="utf-8"?>
<!-- Generator: Adobe Illustrator 14.0.0, SVG Export Plug-In . SVG Version: 6.00 Build 43363)  -->
<!DOCTYPE svg PUBLIC "-//W3C//DTD SVG 1.1//EN" "http://www.w3.org/Graphics/SVG/1.1/DTD/svg11.dtd">
<svg version="1.1" id="Icons" xmlns="http://www.w3.org/2000/svg" xmlns:xlink="http://www.w3.org/1999/xlink" x="0px" y="0px"
	 width="7.797px" height="16.709px" viewBox="0 0 7.797 16.709" enable-background="new 0 0 7.797 16.709" xml:space="preserve">
<path fill="#FFFFFF" d="M7.797,2.929c-0.729,0-1.514,0-1.887,0S5.16,3.316,5.16,3.603c0,0.287,0,1.924,0,1.924s2.33,0,2.633,0
	C7.688,7.001,7.469,8.35,7.469,8.35H5.146v8.359H1.686V8.35H0V5.537h1.686c0,0,0-1.879,0-2.3C1.686,2.816,1.6,0,5.232,0
	c0.486,0,1.592,0,2.564,0C7.797,1.222,7.797,2.546,7.797,2.929z"/>
</svg>
