<?xml version="1.0" encoding="utf-8"?>
<!-- Generator: Adobe Illustrator 14.0.0, SVG Export Plug-In . SVG Version: 6.00 Build 43363)  -->
<!DOCTYPE svg PUBLIC "-//W3C//DTD SVG 1.1//EN" "http://www.w3.org/Graphics/SVG/1.1/DTD/svg11.dtd">
<svg version="1.1" id="Layer_1" xmlns="http://www.w3.org/2000/svg" xmlns:xlink="http://www.w3.org/1999/xlink" x="0px" y="0px"
	 width="231px" height="197px" viewBox="0 0 231 197" enable-background="new 0 0 231 197" xml:space="preserve">
<g>
	<path fill="#332D29" d="M124.233,86.123c-0.208-0.255-0.454-0.456-0.737-0.601c-0.283-0.146-0.583-0.218-0.901-0.218h-0.749v5.7
		h0.749c0.318,0,0.619-0.074,0.901-0.224c0.283-0.149,0.529-0.353,0.737-0.61c0.208-0.257,0.374-0.56,0.495-0.908
		c0.122-0.348,0.183-0.722,0.183-1.123c0-0.396-0.061-0.768-0.183-1.114C124.607,86.679,124.442,86.378,124.233,86.123z"/>
	<path fill="#332D29" d="M112.623,86.412l0.33,0.324c0.122-0.066,0.236-0.131,0.342-0.194s0.2-0.125,0.283-0.188
		c0.126-0.09,0.215-0.198,0.269-0.321c0.053-0.124,0.08-0.27,0.08-0.439c0-0.106-0.021-0.206-0.062-0.3
		c-0.042-0.094-0.098-0.178-0.171-0.25s-0.156-0.13-0.25-0.171c-0.094-0.042-0.195-0.062-0.301-0.062
		c-0.126,0-0.24,0.02-0.342,0.059c-0.102,0.039-0.191,0.094-0.265,0.165c-0.075,0.071-0.133,0.154-0.174,0.25
		c-0.042,0.096-0.062,0.199-0.062,0.309c0,0.157,0.028,0.31,0.085,0.457C112.44,86.197,112.52,86.317,112.623,86.412z"/>
	<path fill="#332D29" d="M94.32,51.727h-0.481v7.555h0.481c1.778,0,2.37-0.667,2.407-2.667v-1.667v-0.111
		C96.727,52.393,96.208,51.727,94.32,51.727z"/>
	<polygon fill="#332D29" points="111.666,30.377 110.77,33.283 112.574,33.283 	"/>
	<path fill="#332D29" d="M79.988,60.874c-0.259-2.667-0.407-4.259-0.74-8.184h-0.111c-0.185,1.814-0.333,3.185-0.407,4.073
		c-0.185,2.185-0.296,3.519-0.371,4.111l-0.37,3.592h2.37L79.988,60.874z"/>
	<path fill="#332D29" d="M112.413,89.064c-0.088,0.071-0.163,0.147-0.224,0.23c-0.061,0.083-0.108,0.174-0.141,0.274
		c-0.034,0.1-0.05,0.211-0.05,0.333c0,0.129,0.025,0.254,0.077,0.374c0.051,0.12,0.123,0.227,0.215,0.321
		c0.092,0.095,0.203,0.169,0.333,0.224c0.129,0.055,0.275,0.083,0.436,0.083c0.248,0,0.469-0.042,0.663-0.126
		s0.371-0.198,0.528-0.339l-1.544-1.58C112.599,88.925,112.501,88.994,112.413,89.064z"/>
	<path fill="#332D29" d="M136.21,35.243c0.208-0.257,0.374-0.56,0.495-0.908c0.122-0.348,0.183-0.722,0.183-1.123
		c0-0.396-0.061-0.768-0.183-1.114c-0.122-0.346-0.287-0.646-0.495-0.902c-0.208-0.255-0.454-0.456-0.737-0.601
		c-0.283-0.146-0.583-0.218-0.901-0.218h-0.749v5.7h0.749c0.318,0,0.619-0.074,0.901-0.224
		C135.756,35.704,136.002,35.5,136.21,35.243z"/>
	<path fill="#332D29" d="M163.298,40.21c-2.869-6.921-0.874-17.294-6.089-22.51c-5.218-5.216-15.59-3.218-22.512-6.089
		C128.021,8.843,122.156,0,114.478,0c-7.679,0-13.543,8.843-20.22,11.611c-6.921,2.871-17.296,0.873-22.512,6.088
		c-5.216,5.216-3.219,15.59-6.089,22.512c-2.769,6.677-11.612,12.541-11.612,20.22c0,7.678,8.843,13.543,11.612,20.22
		c2.87,6.922,0.873,17.295,6.089,22.511c5.215,5.217,15.59,3.221,22.512,6.09c6.676,2.768,12.541,11.611,20.22,11.611
		c7.678,0,13.542-8.844,20.22-11.611c6.921-2.869,17.294-0.873,22.512-6.09c5.215-5.215,3.22-15.589,6.089-22.511
		c2.768-6.677,11.611-12.542,11.611-20.22C174.91,52.752,166.066,46.888,163.298,40.21z M131.153,36.077h0.713v-5.7h-0.713v-1.621
		h3.431c0.409,0,0.8,0.053,1.176,0.159c0.375,0.106,0.725,0.255,1.049,0.448c0.324,0.192,0.619,0.423,0.884,0.692
		c0.266,0.269,0.492,0.569,0.681,0.899c0.188,0.33,0.334,0.686,0.436,1.067s0.153,0.778,0.153,1.19s-0.051,0.81-0.153,1.191
		s-0.248,0.738-0.436,1.07c-0.189,0.332-0.416,0.635-0.681,0.908c-0.265,0.273-0.56,0.507-0.884,0.702
		c-0.324,0.194-0.674,0.345-1.049,0.451c-0.375,0.106-0.767,0.159-1.176,0.159h-3.431V36.077z M127.535,28.061l1.798,0.625
		l-1.68,3.189l-1.208-0.459L127.535,28.061z M116.82,28.756h8.128v2.717h-1.933v-1.155h-1.232v5.759h0.943v1.615h-3.825v-1.615
		h0.925v-5.759h-1.084v1.155h-1.922V28.756z M107.458,36.077h0.666l2.435-7.321h2.363l2.381,7.321h0.648v1.615h-3.389v-1.615h0.89
		l-0.401-1.285h-2.747l-0.401,1.285h0.943v1.615h-3.389V36.077z M98.623,36.077h0.938v-5.541h-0.938v-1.78h7.109v3.047h-1.922
		v-1.267h-2.293v1.762h1.774v1.709h-1.774v2.069h2.293v-1.585h1.922v3.201h-7.109V36.077z M89.835,36.077h0.925v-5.529h-0.925
		v-1.792h6.914v3.047h-1.916v-1.255h-2.116v1.88h1.833v1.715h-1.833v1.933h0.943v1.615h-3.826V36.077z M108.038,86.73h-1.922v-1.267
		h-2.293v1.762h1.774v1.709h-1.774v2.069h2.293v-1.585h1.922v3.201h-7.109v-1.615h0.938v-5.541h-0.938v-1.78h7.109V86.73z
		 M116.654,92.908l-1.185-1.214c-0.322,0.306-0.687,0.551-1.093,0.734c-0.407,0.183-0.861,0.274-1.365,0.274
		c-0.4,0-0.776-0.071-1.125-0.212c-0.35-0.141-0.654-0.336-0.914-0.583c-0.26-0.248-0.464-0.54-0.613-0.878
		s-0.224-0.702-0.224-1.091c0-0.499,0.116-0.941,0.348-1.326c0.231-0.385,0.554-0.723,0.966-1.014c0.004,0,0.01-0.004,0.018-0.012
		l-0.112-0.118c-0.244-0.259-0.431-0.54-0.563-0.843c-0.131-0.303-0.197-0.643-0.197-1.02c0-0.322,0.065-0.629,0.194-0.92
		c0.13-0.291,0.31-0.547,0.54-0.769s0.499-0.398,0.808-0.527c0.309-0.13,0.644-0.195,1.005-0.195c0.381,0,0.727,0.067,1.038,0.201
		c0.31,0.133,0.576,0.312,0.795,0.533c0.22,0.222,0.39,0.478,0.51,0.767c0.12,0.289,0.18,0.588,0.18,0.898
		c0,0.22-0.029,0.433-0.085,0.637c-0.057,0.205-0.136,0.395-0.236,0.572s-0.217,0.339-0.351,0.486
		c-0.134,0.147-0.275,0.274-0.425,0.38c-0.067,0.047-0.131,0.093-0.194,0.138c-0.063,0.045-0.128,0.09-0.194,0.133l0.966,0.955
		c0.055-0.177,0.102-0.347,0.139-0.51c0.038-0.163,0.068-0.317,0.091-0.462h1.763c-0.028,0.381-0.094,0.769-0.198,1.164
		s-0.247,0.779-0.427,1.152l1.503,1.474L116.654,92.908z M126.833,89.33c-0.102,0.381-0.248,0.738-0.436,1.07
		c-0.189,0.332-0.416,0.635-0.681,0.908c-0.265,0.273-0.56,0.507-0.884,0.702c-0.324,0.194-0.674,0.345-1.049,0.451
		c-0.375,0.106-0.767,0.159-1.176,0.159h-3.431v-1.615h0.713v-5.7h-0.713v-1.621h3.431c0.409,0,0.8,0.053,1.176,0.159
		c0.375,0.106,0.725,0.255,1.049,0.448c0.324,0.192,0.619,0.423,0.884,0.692c0.266,0.269,0.492,0.569,0.681,0.899
		c0.188,0.33,0.334,0.686,0.436,1.067s0.153,0.778,0.153,1.19S126.935,88.948,126.833,89.33z M155.377,78.934h-80.73v-1h80.73
		V78.934z M73.693,73.206l3.37-24.664h4.444l3.222,24.664h-3.37l-0.63-5.555h-3.111l-0.592,5.555H73.693z M100.764,73.206h-3.703
		l-2-10.591c-0.556,0.111-0.704,0.111-1.222,0.111v10.48h-3.444V48.542h3.37c3.11,0,4.407,0.519,5.37,2.259
		c0.667,1.185,0.963,2.555,0.963,4.666c0,3.037-0.333,4.147-1.741,5.962L100.764,73.206z M104.689,51.727v-3.185h10.036v3.185
		h-3.333v21.479h-3.481V51.727H104.689z M120.429,73.206V48.542h3.444v24.664H120.429z M135.204,70.391
		c1.037,0,1.592-0.815,1.592-2.444c0-1.222-0.518-2.703-1.333-3.814l-0.778-1.037l-1.704-2.556c-2.111-3.11-2.814-4.888-2.814-7.036
		c0-3.259,2-5.333,5.074-5.333c3.148,0,4.703,1.962,4.703,5.999v0.667l-3.37,0.333c0-3.037-0.296-3.814-1.518-3.814
		c-0.963,0-1.444,0.815-1.444,2.333c0,1.296,0.296,2.074,1.555,3.963l0.852,1.296l1.74,2.555c1.593,2.296,2.481,4.814,2.481,6.925
		c0,3.333-1.778,5.147-5,5.147c-1.889,0-3.222-0.592-4.148-1.852c-0.814-1.148-1.074-2.148-1.074-4.259c0-0.555,0-0.777,0.037-1.37
		l3.407-0.185c0,0.555,0,0.778,0,1.111C133.463,69.576,133.908,70.391,135.204,70.391z M144.5,51.727v-3.185h10.036v3.185h-3.333
		v21.479h-3.481V51.727H144.5z M155.377,42.97h-80.73v-1h80.73V42.97z"/>
</g>
<g>
	<path fill="#332D29" d="M61.146,157.035H57.75l-1.4-6.405c-0.105-0.386-0.21-0.945-0.315-1.646c-0.28-1.436-0.315-1.715-0.63-3.186
		l-1.47,4.061v7.176H50.68v-23.312h3.255v4.69c0,0.875-0.035,2.17-0.105,4.9c0.77-2.521,1.19-3.78,1.575-4.9l1.715-4.69h3.325
		l-2.94,7.876L61.146,157.035z"/>
	<path fill="#332D29" d="M67.83,157.035h-3.15l3.185-23.312h4.201l3.045,23.312h-3.186l-0.595-5.251h-2.94L67.83,157.035z
		 M70.63,145.379c-0.245-2.521-0.385-4.025-0.7-7.735h-0.105c-0.175,1.715-0.315,3.01-0.385,3.85
		c-0.175,2.065-0.28,3.326-0.35,3.886l-0.35,3.396h2.24L70.63,145.379z"/>
	<path fill="#332D29" d="M79.239,136.733h-3.045v-3.011h9.486v3.011h-3.15v20.302h-3.29V136.733z"/>
	<path fill="#332D29" d="M93.448,157.035h-3.255v-23.312h3.255V157.035z"/>
	<path fill="#332D29" d="M106.014,133.723v3.011h-4.585v6.545h3.221v3.046h-3.221v7.666h4.866v3.045h-8.121v-23.312H106.014z"/>
	<path fill="#332D29" d="M122.252,146.324v10.711h-3.255v-23.312h3.255v9.591h2.625v-9.591h3.291v23.312h-3.291v-10.711H122.252z"/>
	<path fill="#332D29" d="M135.798,157.035h-3.15l3.186-23.312h4.2l3.045,23.312h-3.185l-0.596-5.251h-2.94L135.798,157.035z
		 M138.598,145.379c-0.244-2.521-0.385-4.025-0.699-7.735h-0.105c-0.175,1.715-0.315,3.01-0.385,3.85
		c-0.176,2.065-0.28,3.326-0.351,3.886l-0.35,3.396h2.24L138.598,145.379z"/>
	<path fill="#332D29" d="M150.112,152.449c0,1.331,0.386,1.926,1.365,1.926c0.945,0,1.33-0.561,1.33-1.891v-18.762h3.291v17.396
		c0,2.976-0.07,3.36-0.77,4.376c-0.771,1.19-2.24,1.89-3.852,1.89c-1.645-0.034-3.15-0.734-3.885-1.89
		c-0.699-1.085-0.734-1.471-0.734-4.341v-17.432h3.255V152.449z"/>
	<path fill="#332D29" d="M169.573,157.035h-1.75l-0.49-1.575c-0.91,1.33-1.891,1.925-3.01,1.925c-1.33,0-2.695-0.84-3.326-2.064
		c-0.525-1.016-0.664-1.891-0.664-3.991v-12.391c0-3.676,1.574-5.565,4.619-5.565c3.115,0,4.691,2.03,4.691,6.056
		c0,0.524,0,0.944-0.07,1.854h-3.256c0.07-0.734,0.07-1.085,0.07-1.54c0-2.66-0.314-3.36-1.436-3.36c-1.084,0-1.33,0.525-1.33,2.556
		v12.356l-0.035,0.944c0,1.436,0.455,2.136,1.33,2.136c1.121,0,1.4-0.63,1.4-3.046v-3.395h-1.4v-2.73h4.656V157.035z"/>
	<path fill="#332D29" d="M177.866,146.324v10.711h-3.254v-23.312h3.254v9.591h2.627v-9.591h3.289v23.312h-3.289v-10.711H177.866z"/>
</g>
<g>
	<path fill="#FFFFFF" d="M14.626,188.672c0.059-0.258,0.048-0.487-0.033-0.688c-0.08-0.2-0.208-0.37-0.384-0.51
		c-0.176-0.139-0.388-0.244-0.637-0.314c-0.249-0.071-0.513-0.106-0.791-0.106c-0.405,0-0.768,0.054-1.088,0.161
		s-0.589,0.254-0.809,0.439s-0.388,0.401-0.505,0.648c-0.117,0.246-0.176,0.507-0.176,0.779c0,0.245,0.046,0.442,0.139,0.594
		s0.21,0.276,0.352,0.373c0.142,0.099,0.299,0.176,0.472,0.234s0.341,0.117,0.502,0.176l1.37,0.498
		c0.352,0.117,0.659,0.257,0.923,0.418s0.483,0.348,0.659,0.561c0.176,0.212,0.308,0.454,0.396,0.725
		c0.088,0.271,0.132,0.578,0.132,0.92c0,0.541-0.105,1.037-0.315,1.486s-0.504,0.834-0.883,1.153
		c-0.378,0.32-0.833,0.567-1.366,0.743s-1.121,0.264-1.765,0.264c-0.581,0-1.073-0.062-1.476-0.187
		c-0.403-0.124-0.734-0.293-0.993-0.505c-0.259-0.213-0.453-0.455-0.583-0.729s-0.211-0.562-0.245-0.865H6.826l0.286-1.164h1.992
		l-0.132,0.542c-0.068,0.527,0.085,0.921,0.461,1.179c0.376,0.26,0.92,0.389,1.633,0.389c0.366,0,0.703-0.051,1.011-0.154
		c0.308-0.102,0.572-0.245,0.795-0.428c0.222-0.184,0.396-0.403,0.523-0.659c0.127-0.257,0.19-0.536,0.19-0.839
		c0-0.234-0.042-0.437-0.125-0.607s-0.197-0.319-0.34-0.443c-0.145-0.125-0.313-0.232-0.506-0.322
		c-0.193-0.091-0.399-0.172-0.619-0.246l-1.274-0.41c-0.664-0.209-1.167-0.521-1.509-0.938c-0.342-0.414-0.513-0.946-0.513-1.596
		c0-0.498,0.095-0.961,0.286-1.389c0.19-0.427,0.467-0.798,0.831-1.113c0.364-0.314,0.806-0.562,1.326-0.739
		c0.52-0.179,1.109-0.268,1.769-0.268c0.415,0,0.796,0.047,1.143,0.14s0.653,0.222,0.919,0.388s0.491,0.366,0.674,0.601
		c0.184,0.234,0.316,0.493,0.399,0.776h0.74l-0.286,1.172h-1.904L14.626,188.672z"/>
	<path fill="#FFFFFF" d="M19.987,185.896h8.057l-0.732,3.172h-1.516l0.447-1.904h-3.955l-0.813,3.552h3.267l-0.315,1.26h-3.237
		l-0.864,3.765h3.911l0.447-1.919h1.531L25.48,197h-7.954l0.286-1.26h0.981l1.978-8.576h-1.084L19.987,185.896z"/>
	<path fill="#FFFFFF" d="M31.25,185.896h8.057l-0.732,3.172h-1.516l0.447-1.904H33.55l-0.813,3.552h3.267l-0.315,1.26h-3.237
		l-0.864,3.765h3.911l0.447-1.919h1.531L36.744,197H28.79l0.286-1.26h0.981l1.978-8.576H30.95L31.25,185.896z"/>
	<path fill="#FFFFFF" d="M46.564,185.896h3.604l-0.3,1.268h-1.003l-1.963,8.576h1.091L47.707,197h-3.604l0.286-1.26h0.981
		l1.978-8.576h-1.084L46.564,185.896z M53.734,187.164l0.3-1.268h2.85l-0.301,1.268h-0.688l-6.13,4.313l3.428,4.263h1.157
		L54.064,197h-2.981l0.286-1.26l-3.435-4.409L53.734,187.164z"/>
	<path fill="#FFFFFF" d="M62.31,195.74h0.932l-0.271-2.505h-4.205l-1.398,2.505h0.996L58.085,197h-3.604l0.286-1.26h0.959
		l5.566-9.844h2.365l1.158,9.844h1.098L65.628,197h-3.604L62.31,195.74z M59.468,191.976h3.363l-0.551-5.039L59.468,191.976z"/>
	<path fill="#FFFFFF" d="M68.373,195.74h1.025l1.992-8.643h-2.688l-0.389,1.729h-1.502l0.674-2.93h9.902l-0.681,2.93h-1.494
		l0.388-1.729h-2.695l-1.977,8.643h1.039L71.683,197h-3.596L68.373,195.74z"/>
	<path fill="#FFFFFF" d="M79.513,185.896h3.604l-0.301,1.268h-1.033l-1.963,8.576h1.019L80.552,197h-3.604l0.286-1.26h1.055
		l1.978-8.576H79.22L79.513,185.896z"/>
	<path fill="#FFFFFF" d="M86.477,185.896h8.057l-0.732,3.172h-1.516l0.447-1.904h-3.955l-0.813,3.552h3.267l-0.314,1.26h-3.238
		l-0.863,3.765h3.91l0.447-1.919h1.531L91.971,197h-7.955l0.286-1.26h0.981l1.978-8.576h-1.084L86.477,185.896z"/>
	<path fill="#FFFFFF" d="M97.645,185.553L99,186.139l-2.373,3.691l-0.916-0.477L97.645,185.553z"/>
	<path fill="#FFFFFF" d="M106.668,188.672c0.059-0.258,0.048-0.487-0.033-0.688c-0.08-0.2-0.209-0.37-0.385-0.51
		c-0.176-0.139-0.388-0.244-0.637-0.314c-0.249-0.071-0.513-0.106-0.791-0.106c-0.405,0-0.768,0.054-1.088,0.161
		c-0.319,0.107-0.59,0.254-0.809,0.439c-0.221,0.186-0.389,0.401-0.506,0.648c-0.117,0.246-0.176,0.507-0.176,0.779
		c0,0.245,0.046,0.442,0.139,0.594s0.21,0.276,0.352,0.373c0.142,0.099,0.3,0.176,0.473,0.234c0.174,0.059,0.341,0.117,0.502,0.176
		l1.369,0.498c0.352,0.117,0.66,0.257,0.924,0.418s0.482,0.348,0.658,0.561c0.176,0.212,0.309,0.454,0.396,0.725
		c0.088,0.271,0.131,0.578,0.131,0.92c0,0.541-0.104,1.037-0.314,1.486s-0.504,0.834-0.883,1.153
		c-0.378,0.32-0.834,0.567-1.365,0.743c-0.533,0.176-1.121,0.264-1.766,0.264c-0.581,0-1.073-0.062-1.476-0.187
		c-0.403-0.124-0.734-0.293-0.993-0.505c-0.259-0.213-0.452-0.455-0.582-0.729c-0.129-0.273-0.211-0.562-0.245-0.865h-0.696
		l0.286-1.164h1.992l-0.132,0.542c-0.068,0.527,0.085,0.921,0.461,1.179c0.376,0.26,0.921,0.389,1.634,0.389
		c0.366,0,0.703-0.051,1.011-0.154c0.308-0.102,0.572-0.245,0.795-0.428c0.222-0.184,0.396-0.403,0.523-0.659
		c0.127-0.257,0.19-0.536,0.19-0.839c0-0.234-0.042-0.437-0.124-0.607c-0.084-0.171-0.197-0.319-0.341-0.443
		c-0.145-0.125-0.312-0.232-0.506-0.322c-0.192-0.091-0.399-0.172-0.618-0.246l-1.275-0.41c-0.664-0.209-1.167-0.521-1.508-0.938
		c-0.343-0.414-0.514-0.946-0.514-1.596c0-0.498,0.096-0.961,0.286-1.389c0.19-0.427,0.468-0.798,0.831-1.113
		c0.364-0.314,0.806-0.562,1.326-0.739c0.52-0.179,1.109-0.268,1.769-0.268c0.415,0,0.796,0.047,1.143,0.14s0.653,0.222,0.919,0.388
		c0.267,0.166,0.491,0.366,0.674,0.601c0.184,0.234,0.316,0.493,0.399,0.776h0.739l-0.285,1.172h-1.904L106.668,188.672z"/>
	<path fill="#FFFFFF" d="M123.279,194.642c-0.283,0.4-0.599,0.758-0.944,1.073c-0.348,0.314-0.729,0.581-1.143,0.798
		c-0.416,0.218-0.865,0.384-1.348,0.498c-0.484,0.115-1.004,0.173-1.561,0.173c-0.669,0-1.288-0.126-1.856-0.378
		c-0.569-0.251-1.062-0.599-1.476-1.044c-0.416-0.443-0.741-0.97-0.979-1.578c-0.236-0.607-0.355-1.268-0.355-1.98
		c0-0.61,0.072-1.196,0.217-1.758c0.144-0.562,0.348-1.083,0.611-1.564c0.264-0.48,0.583-0.918,0.959-1.311
		c0.376-0.394,0.798-0.729,1.264-1.008c0.467-0.277,0.972-0.492,1.517-0.645c0.544-0.15,1.116-0.227,1.718-0.227
		c0.829,0,1.568,0.167,2.215,0.502c0.647,0.334,1.178,0.797,1.594,1.388h1.143l-0.301,1.26h-2.021
		c-0.107-0.249-0.25-0.479-0.429-0.688c-0.178-0.21-0.386-0.39-0.622-0.538c-0.237-0.149-0.502-0.265-0.795-0.349
		c-0.293-0.082-0.607-0.124-0.945-0.124c-0.645,0-1.24,0.131-1.787,0.392c-0.547,0.262-1.021,0.617-1.42,1.066
		c-0.401,0.449-0.714,0.973-0.938,1.57c-0.226,0.599-0.338,1.234-0.338,1.908c0,0.562,0.088,1.068,0.264,1.52
		c0.176,0.452,0.41,0.835,0.703,1.15c0.293,0.314,0.633,0.557,1.019,0.725c0.386,0.169,0.788,0.253,1.208,0.253
		c0.737,0,1.386-0.152,1.945-0.458c0.559-0.305,1.051-0.763,1.476-1.373L123.279,194.642z"/>
	<path fill="#FFFFFF" d="M129.635,197.227c-0.625,0-1.22-0.119-1.783-0.358c-0.564-0.239-1.06-0.577-1.487-1.015
		c-0.427-0.437-0.767-0.964-1.018-1.582c-0.252-0.617-0.378-1.307-0.378-2.068c0-0.64,0.076-1.244,0.228-1.813
		c0.151-0.568,0.363-1.095,0.638-1.578c0.272-0.483,0.602-0.918,0.984-1.304c0.384-0.386,0.809-0.713,1.274-0.981
		c0.467-0.269,0.966-0.475,1.498-0.619c0.532-0.144,1.086-0.216,1.663-0.216c0.624,0,1.219,0.108,1.783,0.326
		c0.563,0.217,1.06,0.533,1.486,0.948c0.428,0.415,0.767,0.924,1.019,1.527c0.251,0.603,0.377,1.288,0.377,2.054
		c0,0.655-0.073,1.275-0.22,1.861s-0.353,1.125-0.619,1.618c-0.266,0.493-0.588,0.938-0.967,1.333
		c-0.378,0.396-0.801,0.731-1.267,1.007c-0.467,0.276-0.971,0.488-1.513,0.638C130.792,197.152,130.226,197.227,129.635,197.227z
		 M129.803,195.74c0.42,0,0.823-0.059,1.209-0.176s0.744-0.284,1.076-0.502c0.332-0.217,0.634-0.479,0.905-0.783
		c0.271-0.306,0.501-0.646,0.692-1.021c0.189-0.376,0.338-0.781,0.442-1.217c0.105-0.434,0.157-0.891,0.157-1.369
		c0-0.532-0.079-1.013-0.237-1.443c-0.159-0.429-0.38-0.797-0.663-1.102c-0.283-0.306-0.62-0.54-1.011-0.703
		c-0.391-0.164-0.818-0.246-1.282-0.246c-0.605,0-1.179,0.123-1.721,0.367s-1.018,0.584-1.428,1.021
		c-0.41,0.437-0.735,0.954-0.975,1.553c-0.239,0.598-0.359,1.251-0.359,1.959c0,0.522,0.08,1.007,0.238,1.454
		c0.159,0.446,0.38,0.834,0.663,1.161s0.62,0.583,1.011,0.769S129.339,195.74,129.803,195.74z"/>
	<path fill="#FFFFFF" d="M139.281,185.896h3.604l-0.3,1.268h-1.003l-1.963,8.576h3.698c0.21,0,0.372-0.056,0.487-0.168
		c0.114-0.112,0.191-0.252,0.23-0.418l0.344-1.443h1.473L145.089,197h-8.27l0.286-1.26h0.981l1.978-8.576h-1.084L139.281,185.896z"
		/>
	<path fill="#FFFFFF" d="M149.659,185.896h3.604l-0.3,1.268h-1.003l-1.963,8.576h3.698c0.21,0,0.372-0.056,0.487-0.168
		c0.114-0.112,0.191-0.252,0.23-0.418l0.344-1.443h1.473L155.467,197h-8.27l0.286-1.26h0.981l1.978-8.576h-1.084L149.659,185.896z"
		/>
	<path fill="#FFFFFF" d="M159.737,185.896h8.057l-0.732,3.172h-1.516l0.447-1.904h-3.955l-0.813,3.552h3.267l-0.314,1.26h-3.238
		l-0.863,3.765h3.91l0.447-1.919h1.531L165.231,197h-7.955l0.286-1.26h0.981l1.978-8.576h-1.084L159.737,185.896z"/>
	<path fill="#FFFFFF" d="M177.901,194.642c-0.283,0.4-0.599,0.758-0.944,1.073c-0.348,0.314-0.729,0.581-1.143,0.798
		c-0.416,0.218-0.865,0.384-1.348,0.498c-0.484,0.115-1.004,0.173-1.561,0.173c-0.669,0-1.288-0.126-1.856-0.378
		c-0.569-0.251-1.062-0.599-1.476-1.044c-0.416-0.443-0.741-0.97-0.979-1.578c-0.236-0.607-0.355-1.268-0.355-1.98
		c0-0.61,0.072-1.196,0.217-1.758c0.144-0.562,0.348-1.083,0.611-1.564c0.264-0.48,0.583-0.918,0.959-1.311
		c0.376-0.394,0.798-0.729,1.264-1.008c0.467-0.277,0.972-0.492,1.517-0.645c0.544-0.15,1.116-0.227,1.718-0.227
		c0.829,0,1.568,0.167,2.215,0.502c0.647,0.334,1.178,0.797,1.594,1.388h1.143l-0.301,1.26h-2.021
		c-0.107-0.249-0.25-0.479-0.429-0.688c-0.178-0.21-0.386-0.39-0.622-0.538c-0.237-0.149-0.502-0.265-0.795-0.349
		c-0.293-0.082-0.607-0.124-0.945-0.124c-0.645,0-1.24,0.131-1.787,0.392c-0.547,0.262-1.021,0.617-1.42,1.066
		c-0.401,0.449-0.714,0.973-0.938,1.57c-0.226,0.599-0.338,1.234-0.338,1.908c0,0.562,0.088,1.068,0.264,1.52
		c0.176,0.452,0.41,0.835,0.703,1.15c0.293,0.314,0.633,0.557,1.019,0.725c0.386,0.169,0.788,0.253,1.208,0.253
		c0.737,0,1.386-0.152,1.945-0.458c0.559-0.305,1.051-0.763,1.476-1.373L177.901,194.642z"/>
	<path fill="#FFFFFF" d="M181.591,195.74h1.025l1.992-8.643h-2.688l-0.389,1.729h-1.502l0.674-2.93h9.902l-0.681,2.93h-1.494
		l0.388-1.729h-2.695l-1.977,8.643h1.039l-0.285,1.26h-3.596L181.591,195.74z"/>
	<path fill="#FFFFFF" d="M192.432,185.896h3.604l-0.301,1.268h-1.033l-1.963,8.576h1.019l-0.286,1.26h-3.604l0.286-1.26h1.055
		l1.978-8.576h-1.047L192.432,185.896z"/>
	<path fill="#FFFFFF" d="M201.601,197.227c-0.625,0-1.22-0.119-1.783-0.358c-0.564-0.239-1.06-0.577-1.487-1.015
		c-0.427-0.437-0.767-0.964-1.018-1.582c-0.252-0.617-0.378-1.307-0.378-2.068c0-0.64,0.076-1.244,0.228-1.813
		c0.151-0.568,0.363-1.095,0.638-1.578c0.272-0.483,0.602-0.918,0.984-1.304c0.384-0.386,0.809-0.713,1.274-0.981
		c0.467-0.269,0.966-0.475,1.498-0.619c0.532-0.144,1.086-0.216,1.663-0.216c0.624,0,1.219,0.108,1.783,0.326
		c0.563,0.217,1.06,0.533,1.486,0.948c0.428,0.415,0.767,0.924,1.019,1.527c0.251,0.603,0.377,1.288,0.377,2.054
		c0,0.655-0.073,1.275-0.22,1.861s-0.353,1.125-0.619,1.618c-0.266,0.493-0.588,0.938-0.967,1.333
		c-0.378,0.396-0.801,0.731-1.267,1.007c-0.467,0.276-0.971,0.488-1.513,0.638C202.758,197.152,202.192,197.227,201.601,197.227z
		 M201.769,195.74c0.42,0,0.823-0.059,1.209-0.176s0.744-0.284,1.076-0.502c0.332-0.217,0.634-0.479,0.905-0.783
		c0.271-0.306,0.501-0.646,0.692-1.021c0.189-0.376,0.338-0.781,0.442-1.217c0.105-0.434,0.157-0.891,0.157-1.369
		c0-0.532-0.079-1.013-0.237-1.443c-0.159-0.429-0.38-0.797-0.663-1.102c-0.283-0.306-0.62-0.54-1.011-0.703
		c-0.391-0.164-0.818-0.246-1.282-0.246c-0.605,0-1.179,0.123-1.721,0.367s-1.018,0.584-1.428,1.021
		c-0.41,0.437-0.735,0.954-0.975,1.553c-0.239,0.598-0.359,1.251-0.359,1.959c0,0.522,0.08,1.007,0.238,1.454
		c0.159,0.446,0.38,0.834,0.663,1.161s0.62,0.583,1.011,0.769S201.305,195.74,201.769,195.74z"/>
	<path fill="#FFFFFF" d="M217.97,185.896h3.597l-0.286,1.268h-0.996L218.029,197h-1.919l-3.025-9.191l-1.823,7.932h1.113
		l-0.286,1.26h-3.604l0.286-1.26h0.974l1.985-8.576h-1.099l0.301-1.268h3.047l2.988,9.126l1.801-7.858h-1.084L217.97,185.896z"/>
</g>
<polygon points="231,170.896 0,170.896 0,169.896 231,169.896 231,170.896 "/>
</svg>
