<?xml version="1.0" encoding="utf-8"?>
<!-- Generator: Adobe Illustrator 14.0.0, SVG Export Plug-In . SVG Version: 6.00 Build 43363)  -->
<!DOCTYPE svg PUBLIC "-//W3C//DTD SVG 1.1//EN" "http://www.w3.org/Graphics/SVG/1.1/DTD/svg11.dtd">
<svg version="1.1" id="Icons" xmlns="http://www.w3.org/2000/svg" xmlns:xlink="http://www.w3.org/1999/xlink" x="0px" y="0px"
	 width="15.373px" height="10.59px" viewBox="0 0 15.373 10.59" enable-background="new 0 0 15.373 10.59" xml:space="preserve">
<path fill="#FFFFFF" d="M13.538,5.577C12.285,10.658,3.87,12.812,0,7.538c1.482,1.415,4.064,1.539,5.702-0.152
	c-0.96,0.14-1.659-0.801-0.479-1.31C4.161,6.192,3.571,5.628,3.33,5.149c0.249-0.26,0.523-0.381,1.054-0.417
	c-1.161-0.274-1.59-0.842-1.722-1.531c0.322-0.077,0.726-0.143,0.946-0.113C2.59,2.556,2.236,1.757,2.294,1.155
	C4.11,1.83,5.27,2.372,6.238,2.892c0.345,0.184,0.729,0.515,1.163,0.936C7.954,2.366,8.637,0.86,9.808,0.112
	c-0.02,0.17-0.11,0.327-0.23,0.457C9.91,0.267,10.34,0.06,10.779,0c-0.051,0.329-0.524,0.514-0.811,0.621
	c0.217-0.067,1.367-0.581,1.493-0.288c0.148,0.333-0.795,0.486-0.955,0.543c-0.119,0.04-0.239,0.084-0.356,0.132
	c1.459-0.145,2.852,1.059,3.258,2.553c0.029,0.107,0.06,0.227,0.085,0.352c0.533,0.199,1.5-0.009,1.812-0.201
	c-0.226,0.533-0.812,0.925-1.675,0.996c0.416,0.174,1.201,0.269,1.742,0.176C15.03,5.251,14.478,5.585,13.538,5.577z"/>
</svg>
